<svg width="24" height="19" viewBox="0 0 24 19" fill="none" xmlns="http://www.w3.org/2000/svg">
<path d="M10.875 2.5C10.875 3.09766 10.6289 3.66016 10.2422 4.04688L11.1914 6.08594C11.6133 5.94531 12.0703 5.875 12.5625 5.875C13.9336 5.875 15.1641 6.4375 16.0781 7.31641L18.7852 5.3125C18.75 5.13672 18.75 4.96094 18.75 4.75C18.75 3.51953 19.7344 2.5 21 2.5C22.2305 2.5 23.25 3.51953 23.25 4.75C23.25 6.01562 22.2305 7 21 7C20.543 7 20.1562 6.89453 19.8047 6.68359L17.0625 8.6875C17.4141 9.35547 17.625 10.1289 17.625 10.9375C17.625 11.6055 17.4844 12.2383 17.2734 12.8008L19.6289 14.207C20.0156 13.9258 20.4727 13.75 20.9648 13.75C22.2305 13.75 23.2148 14.7695 23.2148 16C23.2148 17.2656 22.2305 18.25 20.9648 18.25C19.7344 18.25 18.7148 17.2656 18.7148 16C18.7148 15.8945 18.75 15.7891 18.75 15.6484L16.3945 14.2422C15.4805 15.332 14.0742 16 12.5625 16C10.0312 16 7.95703 14.207 7.57031 11.7812H5.07422C4.72266 12.625 3.91406 13.1875 3 13.1875C1.73438 13.1875 0.75 12.2031 0.75 10.9375C0.75 9.70703 1.73438 8.6875 3 8.6875C3.91406 8.6875 4.72266 9.28516 5.07422 10.0938H7.57031C7.78125 8.72266 8.55469 7.5625 9.67969 6.78906L8.73047 4.75C8.69531 4.75 8.66016 4.75 8.625 4.75C7.35938 4.75 6.375 3.76562 6.375 2.5C6.375 1.26953 7.35938 0.25 8.625 0.25C9.85547 0.25 10.875 1.26953 10.875 2.5ZM12.5625 14.3125C13.7578 14.3125 14.8477 13.6797 15.4805 12.625C16.0781 11.6055 16.0781 10.3047 15.4805 9.25C14.8477 8.23047 13.7578 7.5625 12.5625 7.5625C11.332 7.5625 10.2422 8.23047 9.60938 9.25C9.01172 10.3047 9.01172 11.6055 9.60938 12.625C10.2422 13.6797 11.332 14.3125 12.5625 14.3125Z" fill="currentColor"/>
</svg>
