<svg width="18" height="19" viewBox="0 0 18 19" fill="none" xmlns="http://www.w3.org/2000/svg">
<path d="M13.5352 15.0156C12.2695 16 10.6875 16.5625 9 16.5625C7.27734 16.5625 5.69531 16 4.42969 15.0156L7.27734 12.168C7.76953 12.4844 8.36719 12.625 9 12.625C9.59766 12.625 10.1953 12.4844 10.6875 12.168L13.5352 15.0156ZM15.9258 15.0156C17.1914 13.4336 18 11.4648 18 9.25C18 7.07031 17.1914 5.10156 15.9258 3.51953L16.3477 3.09766C16.6641 2.78125 16.6641 2.25391 16.3477 1.9375C15.9961 1.58594 15.4688 1.58594 15.1523 1.9375L14.7305 2.32422C13.1484 1.05859 11.1797 0.25 9 0.25C6.78516 0.25 4.81641 1.05859 3.23438 2.32422L2.84766 1.90234C2.49609 1.58594 1.96875 1.58594 1.65234 1.90234C1.30078 2.25391 1.30078 2.78125 1.65234 3.09766L2.03906 3.51953C0.773438 5.10156 0 7.07031 0 9.25C0 11.4648 0.773438 13.4336 2.03906 15.0156L1.65234 15.4023C1.30078 15.7539 1.30078 16.2812 1.65234 16.5977C1.96875 16.9492 2.49609 16.9492 2.8125 16.5977L3.23438 16.2109C4.81641 17.4766 6.78516 18.25 9 18.25C11.1797 18.25 13.1484 17.4766 14.7305 16.2109L15.1523 16.5977C15.4688 16.9492 15.9961 16.9492 16.3125 16.5977C16.6641 16.2812 16.6641 15.7539 16.3125 15.4375L15.9258 15.0156ZM14.7305 13.8203L11.8828 10.9727C12.1992 10.4805 12.375 9.88281 12.375 9.25C12.375 8.65234 12.1992 8.05469 11.8828 7.5625L14.7305 4.71484C15.7148 5.98047 16.3125 7.5625 16.3125 9.25C16.3125 10.9727 15.7148 12.5547 14.7305 13.8203ZM13.5352 3.51953L10.6875 6.36719C10.1953 6.05078 9.59766 5.875 8.96484 5.875C8.36719 5.875 7.76953 6.05078 7.27734 6.36719L4.42969 3.51953C5.69531 2.53516 7.27734 1.9375 9 1.9375C10.6875 1.9375 12.2695 2.53516 13.5352 3.51953ZM6.08203 10.9727L3.23438 13.8203C2.25 12.5547 1.6875 10.9727 1.6875 9.25C1.6875 7.5625 2.25 5.98047 3.23438 4.71484L6.08203 7.5625C5.76562 8.05469 5.625 8.65234 5.625 9.28516C5.625 9.88281 5.76562 10.4805 6.08203 10.9727ZM7.3125 9.25C7.3125 8.65234 7.62891 8.125 8.15625 7.80859C8.64844 7.49219 9.31641 7.49219 9.84375 7.80859C10.3359 8.125 10.6875 8.65234 10.6875 9.25C10.6875 9.88281 10.3359 10.4102 9.84375 10.7266C9.31641 11.043 8.64844 11.043 8.15625 10.7266C7.62891 10.4102 7.3125 9.88281 7.3125 9.25Z" fill="currentColor"/>
</svg>
