<svg width="14" height="19" viewBox="0 0 14 19" fill="none" xmlns="http://www.w3.org/2000/svg">
<path d="M2.5 16.5625C2.18359 16.5625 1.9375 16.3164 1.9375 16V2.5C1.9375 2.21875 2.18359 1.9375 2.5 1.9375H8.125V4.75C8.125 5.38281 8.61719 5.875 9.25 5.875H12.0625V16C12.0625 16.3164 11.7812 16.5625 11.5 16.5625H2.5ZM2.5 0.25C1.23438 0.25 0.25 1.26953 0.25 2.5V16C0.25 17.2656 1.23438 18.25 2.5 18.25H11.5C12.7305 18.25 13.75 17.2656 13.75 16V5.69922C13.75 5.10156 13.5039 4.53906 13.082 4.11719L9.88281 0.917969C9.46094 0.496094 8.89844 0.25 8.30078 0.25H2.5ZM5.91016 10.4102C6.22656 10.0938 6.22656 9.56641 5.91016 9.25C5.55859 8.89844 5.03125 8.89844 4.71484 9.25L3.02734 10.9023C2.67578 11.2539 2.67578 11.7812 3.02734 12.0977L4.71484 13.7852C5.03125 14.1367 5.55859 14.1367 5.875 13.7852C6.22656 13.4688 6.22656 12.9414 5.875 12.5898L4.78516 11.5L5.875 10.4102H5.91016ZM9.28516 9.21484C8.93359 8.89844 8.40625 8.89844 8.08984 9.21484C7.73828 9.56641 7.73828 10.0938 8.08984 10.4102L9.17969 11.5L8.08984 12.5898C7.73828 12.9414 7.73828 13.4688 8.08984 13.7852C8.40625 14.1367 8.93359 14.1367 9.28516 13.7852L10.9727 12.0977C11.2891 11.7812 11.2891 11.2539 10.9727 10.9023L9.28516 9.21484Z" fill="currentColor"/>
</svg>
