<svg width="20" height="20" viewBox="0 0 20 20" fill="none" xmlns="http://www.w3.org/2000/svg">
<path d="M7.92578 10.1797C8.38281 10.4258 8.80469 10.707 9.15625 11.0938C9.54297 11.4453 9.82422 11.8672 10.0703 12.3242C13.7617 11.2695 15.5547 9.51172 16.4336 7.89453C17.3125 6.24219 17.3828 4.44922 17.207 3.04297C15.8008 2.86719 14.0078 2.9375 12.3555 3.81641C10.7383 4.69531 8.98047 6.48828 7.92578 10.1797ZM14.5 12.2539V15.1367C14.5 16.0156 14.0078 16.8594 13.2344 17.3164L10.1406 19.1445C9.85938 19.3203 9.54297 19.3203 9.29688 19.1445C9.01562 19.0039 8.875 18.7227 8.875 18.4062V14.3984C8.875 13.5898 8.55859 12.8164 7.99609 12.2539C7.43359 11.6914 6.66016 11.375 5.85156 11.375H1.84375C1.52734 11.375 1.24609 11.2344 1.10547 10.9531C0.929688 10.707 0.929688 10.3906 1.10547 10.1094L2.93359 7.01562C3.39062 6.24219 4.23438 5.75 5.11328 5.75H7.99609C10.8789 1.14453 15.3438 0.96875 17.9805 1.46094C18.4023 1.53125 18.7188 1.84766 18.7891 2.26953C19.2812 4.90625 19.1055 9.37109 14.5 12.2539ZM1.98438 19.25C1.42188 19.2852 0.964844 18.8281 1 18.2656C1.03516 16.9297 1.24609 14.6094 2.47656 13.4141C3.67188 12.2188 5.64062 12.2188 6.83594 13.4141C8.03125 14.6094 8.03125 16.5781 6.83594 17.7734C5.64062 19.0039 3.32031 19.2148 1.98438 19.25ZM3.74219 17C4.19922 16.9648 4.83203 16.8594 5.18359 16.5078C5.60547 16.1211 5.60547 15.4531 5.18359 15.0664C4.79688 14.6445 4.12891 14.6445 3.74219 15.0664C3.39062 15.418 3.28516 16.0508 3.25 16.5078C3.25 16.7891 3.46094 17 3.74219 17ZM12.5312 6.3125C12.5312 5.82031 12.7773 5.36328 13.2344 5.11719C13.6562 4.87109 14.1836 4.87109 14.6406 5.11719C15.0625 5.36328 15.3438 5.82031 15.3438 6.3125C15.3438 6.83984 15.0625 7.29688 14.6406 7.54297C14.1836 7.78906 13.6562 7.78906 13.2344 7.54297C12.7773 7.29688 12.5312 6.83984 12.5312 6.3125Z" fill="currentColor"/>
</svg>
