<?xml version="1.0" encoding="UTF-8"?>
<svg id="Logo" xmlns="http://www.w3.org/2000/svg" version="1.1" viewBox="0 0 654.3 259.3">
  <defs>
    <style>
      .cls-1 {
        fill: #ff5833;
      }

      .cls-1, .cls-2 {
        stroke-width: 0px;
      }

      .cls-2 {
        fill: #121212;
      }
    </style>
  </defs>
  <g>
    <path class="cls-2" d="M159.3,105.5v48.3c0,3.3-2.7,6-6,6h-8c-3.3,0-6,2.7-6,6v7.8c0,3.3-2.7,6-6,6h-33.9v-20h29.9c5.5,0,10-4.5,10-10v-40c0-5.5-4.5-10-10-10h-29.9v60h-19.9v-80h53.8c3.3,0,6,2.7,6,6v13.9h13.9c3.3,0,6,2.7,6,6Z"/>
    <path class="cls-2" d="M318.6,85.7v14h-33.9c-3.3,0-6,2.7-6,6v74h-19.9v-74.7c0-3.3,2.7-6,6-6h8c3.3,0,6-2.7,6-6v-7.3c0-3.3,2.7-6,6-6h27.9c3.3,0,6,2.7,6,6Z"/>
    <path class="cls-2" d="M338.5,105.6v68c0,3.3-2.7,6-6,6h-13.9v-79.9h13.9c3.3,0,6,2.7,6,6Z"/>
    <g>
      <path class="cls-1" d="M239,85.6v14h-19.9v18.1h-19.9v-18.1h-19.9v-20h53.8c3.3,0,6,2.7,6,6Z"/>
      <path class="cls-1" d="M199.1,137.7l-19.9,6v-20l19.9-6v20Z"/>
      <path class="cls-1" d="M239,143.7l-19.9-6v-20l19.9,6v20Z"/>
      <path class="cls-1" d="M239,159.6v20h-53.8c-3.3,0-6-2.7-6-6v-14h20s0,0,0,0v-21.8h19.9s0,0,0,0v21.8s0,0,0,0h20Z"/>
    </g>
  </g>
  <g>
    <path class="cls-2" d="M387.2,112.6c-1,1.6-2.8,2.6-5.4,2.6h-5.1v-17.1h5.1c2.7,0,4.5,1.1,5.5,2.6,1,1.5,1.2,3.5,1.2,5.8s-.2,4.5-1.2,6ZM384.9,101.2c-.6-.7-1.7-1.1-3.1-1.1h-2.9v13.1h2.9c1.5,0,2.6-.5,3.2-1.2,1.1-1.2,1.2-3.3,1.2-5.4s-.1-4.2-1.3-5.4Z"/>
    <path class="cls-2" d="M393.3,109.7c0,1.1.4,2.2,1.2,3,.6.6,1.4.9,2.3.9s1.6-.2,2.2-.7c.4-.3.8-.9,1-1.5h2c-.6,2.5-2.7,4-5.2,4s-2.9-.6-3.9-1.6c-1.3-1.3-1.8-3-1.8-4.8s.6-3.7,1.8-4.9c.9-.9,2.2-1.6,3.9-1.6s2.9.6,3.8,1.5c1.2,1.2,1.8,3,1.8,4.9v.7h-9.1ZM399.2,105.4c-.6-.6-1.4-1-2.3-1-2.3,0-3.4,2.2-3.5,3.6h6.9c0-1-.4-2-1-2.6Z"/>
    <path class="cls-2" d="M411.8,102.6c1.4,0,2.7.5,3.6,1.3.8.8,1.4,1.8,1.5,3.1h-2.1c-.1-.8-.5-1.4-1-1.9-.5-.5-1.3-.8-2.1-.8s-1.7.4-2.3.9c-1,.9-1.3,2.4-1.3,3.8s.3,2.8,1.3,3.7c.5.5,1.3.9,2.3.9s1.6-.3,2.1-.8c.5-.5.9-1,1-1.9h2c-.1,1.3-.7,2.3-1.5,3.1-.8.8-2.1,1.3-3.6,1.3s-2.9-.6-3.8-1.5c-1.3-1.3-1.9-3-1.9-4.9s.6-3.6,1.9-4.9c.9-.9,2.3-1.5,3.8-1.5Z"/>
    <path class="cls-2" d="M422.6,109.7c0,1.1.4,2.2,1.2,3,.6.6,1.4.9,2.3.9s1.6-.2,2.2-.7c.4-.3.8-.9,1-1.5h2c-.6,2.5-2.7,4-5.2,4s-2.9-.6-3.9-1.6c-1.3-1.3-1.8-3-1.8-4.8s.6-3.7,1.8-4.9c.9-.9,2.2-1.6,3.9-1.6s2.9.6,3.8,1.5c1.2,1.2,1.8,3,1.8,4.9v.7h-9.1ZM428.5,105.4c-.6-.6-1.4-1-2.3-1-2.3,0-3.4,2.2-3.5,3.6h6.9c0-1-.4-2-1-2.6Z"/>
    <path class="cls-2" d="M444,115.1v-7.7c0-1.8-.8-2.9-2.7-2.9s-2.2.8-2.7,1.9c-.4.9-.5,2.2-.5,3.1v5.6h-2.1v-12.2h1.8l.2,1.8c.7-1.4,2.4-2.1,3.8-2.1,2.8,0,4.3,1.7,4.3,4.5v8h-2.1Z"/>
    <path class="cls-2" d="M457.2,115.4c-2.7,0-3.9-1.9-3.9-3.9v-6.8h-3.8v-1.8h3.8v-3.1l2-.6v3.8h5.1v1.8h-5.1v6.6c0,1.3.7,2.2,2.2,2.2s2.1-.4,3.1-.8v1.8c-.9.5-1.9.9-3.4.9Z"/>
    <path class="cls-2" d="M473.3,107.1c0-.7-.2-1.3-.6-1.8-.4-.5-1-.8-1.9-.8s-2.3.9-2.8,2.1c-.4.9-.5,2.2-.5,3.1v5.4h-2.1v-12.2h1.8l.2,1.8c.8-1.5,2.3-2.1,3.9-2.1s2.8.8,3.5,1.8c.6.8.8,1.8.8,2.6h-2.1Z"/>
    <path class="cls-2" d="M488.5,115.3c-1.1,0-1.8-.8-1.8-1.8h0c-.7,1.2-2.3,2-4,2-2.9,0-4.2-1.8-4.2-3.6s1.2-3.8,4.4-4l3.8-.2v-.9c0-.6,0-1.2-.6-1.8-.4-.4-1.1-.7-2-.7s-1.8.3-2.2.7c-.4.4-.6.8-.6,1.4h-2c0-1,.5-1.8,1.1-2.5.8-.8,2.3-1.3,3.8-1.3,2.4,0,3.8,1.1,4.3,2.4.2.6.4,1.1.4,1.8v5.9c0,.6.3.8.7.8s.5,0,.5,0v1.5c-.4.2-.8.3-1.3.3ZM486.6,109.2l-3.4.2c-1.3,0-2.7.7-2.7,2.2s.7,2,2.4,2,1.9-.3,2.5-1c.7-.7,1.1-1.7,1.1-2.7v-.7h0Z"/>
    <path class="cls-2" d="M493.6,115.1v-1.7h4.3v-13.9h-3.9v-1.7h6v15.6h4.3v1.7h-10.6Z"/>
    <path class="cls-2" d="M508.2,115.1v-1.8h4.4v-8.7h-3.9v-1.7h6v10.4h4.4v1.8h-10.9ZM512,100.6v-2.9h2.9v2.9h-2.9Z"/>
    <path class="cls-2" d="M522.8,115.1v-1.8l7.4-8.6h-7.4v-1.8h9.9v1.8l-7.4,8.6h7.5v1.8h-10Z"/>
    <path class="cls-2" d="M538.2,109.7c0,1.1.4,2.2,1.2,3,.6.6,1.4.9,2.3.9s1.6-.2,2.2-.7c.4-.3.8-.9,1-1.5h2c-.6,2.5-2.7,4-5.2,4s-2.9-.6-3.9-1.6c-1.3-1.3-1.8-3-1.8-4.8s.6-3.7,1.8-4.9c.9-.9,2.2-1.6,3.9-1.6s2.9.6,3.8,1.5c1.2,1.2,1.8,3,1.8,4.9v.7h-9.1ZM544.1,105.4c-.6-.6-1.4-1-2.3-1-2.3,0-3.4,2.2-3.5,3.6h6.9c0-1-.4-2-1-2.6Z"/>
    <path class="cls-2" d="M559.8,115.1v-1.6c-.8,1.2-2.5,1.9-3.9,1.9s-2.7-.6-3.5-1.4c-1.2-1.2-1.8-2.9-1.8-5s.6-3.9,1.9-5.1c.8-.7,2-1.4,3.5-1.4s2.9.7,3.6,1.7v-6.6h2v17.4h-1.8ZM558.4,105.2c-.5-.4-1.2-.8-2-.8s-1.7.4-2.2.9c-.9.9-1.3,2.3-1.3,3.7s.4,2.8,1.3,3.8c.5.5,1.2.9,2.3.9s1.6-.3,2-.8c1-.9,1.4-2.3,1.4-3.9s-.4-3-1.4-3.9Z"/>
    <path class="cls-2" d="M377.2,147.2v-1.8h3.8v-13.5h-3.8v-1.8h9.7v1.8h-3.8v13.5h3.8v1.8h-9.7Z"/>
    <path class="cls-2" d="M398.9,147.2v-7.7c0-1.8-.8-2.9-2.7-2.9s-2.2.8-2.7,1.9c-.4.9-.5,2.2-.5,3.1v5.6h-2.1v-12.2h1.8l.2,1.8c.7-1.4,2.4-2.1,3.8-2.1,2.8,0,4.3,1.7,4.3,4.5v8h-2.1Z"/>
    <path class="cls-2" d="M412.9,131.4c-1.6,0-2.3,1-2.3,2.2v1.4h5.3v1.7h-5.3v10.5h-2.1v-10.5h-4v-1.7h4v-1.4c0-2.4,1.6-4,4.2-4s2.4.3,3.1.6v1.9c-.7-.3-1.9-.7-2.9-.7Z"/>
    <path class="cls-2" d="M428.3,139.2c0-.7-.2-1.3-.6-1.8-.4-.5-1-.8-1.9-.8s-2.3.9-2.8,2.1c-.4.9-.5,2.2-.5,3.1v5.4h-2.1v-12.2h1.8l.2,1.8c.8-1.5,2.3-2.1,3.9-2.1s2.8.8,3.5,1.8c.6.8.8,1.8.8,2.6h-2.1Z"/>
    <path class="cls-2" d="M443.6,147.4c-1.1,0-1.8-.8-1.8-1.8h0c-.7,1.2-2.3,2-4,2-2.9,0-4.2-1.8-4.2-3.6s1.2-3.8,4.4-4l3.8-.2v-.9c0-.6,0-1.2-.6-1.8-.4-.4-1.1-.7-2-.7s-1.8.3-2.2.7c-.4.4-.6.8-.6,1.4h-2c0-1,.5-1.8,1.1-2.5.8-.8,2.3-1.3,3.8-1.3,2.4,0,3.8,1.1,4.3,2.4.2.6.4,1.1.4,1.8v5.9c0,.6.3.8.7.8s.5,0,.5,0v1.5c-.4.2-.8.3-1.3.3h0ZM441.6,141.3l-3.4.2c-1.3,0-2.7.7-2.7,2.2s.7,2,2.4,2,1.9-.3,2.5-1c.7-.7,1.1-1.7,1.1-2.7v-.7h0Z"/>
    <path class="cls-2" d="M457.7,146.1c-.9,1-2.5,1.4-4.2,1.4s-3.1-.4-4.2-1.4c-.7-.7-1.2-1.8-1.2-2.8h2c0,.8.5,1.4,1.1,1.9.6.4,1.4.6,2.3.6s1.8-.2,2.4-.7c.3-.3.6-.7.6-1.2,0-.8-.5-1.5-1.8-1.7l-3.1-.5c-.9-.1-1.7-.6-2.2-1.1-.5-.6-.7-1.3-.7-2.1s.4-1.8,1-2.3c.8-.8,2.2-1.4,3.7-1.4s3.2.6,4,1.6c.5.6.8,1.3.8,2.3h-2c0-.6-.4-1.2-.7-1.5-.5-.5-1.3-.7-2.1-.7s-1.5.2-2.1.6c-.4.4-.7.8-.7,1.3,0,.9.6,1.3,1.6,1.5l3.3.5c1.5.2,3,1.3,3,3.3s-.4,1.8-1,2.4h0Z"/>
    <path class="cls-2" d="M469.6,147.5c-2.7,0-3.9-1.9-3.9-3.9v-6.8h-3.8v-1.8h3.8v-3.1l2-.6v3.8h5.1v1.8h-5.1v6.6c0,1.3.7,2.2,2.2,2.2s2.1-.4,3.1-.8v1.8c-.9.5-1.9.9-3.4.9Z"/>
    <path class="cls-2" d="M485.7,139.2c0-.7-.2-1.3-.6-1.8-.4-.5-1-.8-1.9-.8s-2.3.9-2.8,2.1c-.4.9-.5,2.2-.5,3.1v5.4h-2.1v-12.2h1.8l.2,1.8c.8-1.5,2.3-2.1,3.9-2.1s2.8.8,3.5,1.8c.6.8.8,1.8.8,2.6h-2.1Z"/>
    <path class="cls-2" d="M499.6,147.2l-.2-1.8c-.6,1.4-2.4,2.1-3.7,2.1-2.5,0-4.3-1.8-4.3-4.5v-8h2.1v7.7c0,1.8.8,2.9,2.7,2.9s3.1-1.5,3.1-3.6v-7.1h2.1v12.2h-1.8Z"/>
    <path class="cls-2" d="M511.3,134.7c1.4,0,2.7.5,3.6,1.3.8.8,1.4,1.8,1.5,3.1h-2.1c-.1-.8-.5-1.4-1-1.9-.5-.5-1.3-.8-2.1-.8s-1.7.4-2.3.9c-1,.9-1.3,2.4-1.3,3.8s.3,2.8,1.3,3.7c.5.5,1.3.9,2.3.9s1.6-.3,2.1-.8c.5-.5.9-1,1-1.9h2c0,1.3-.7,2.3-1.5,3.1-.8.8-2.1,1.3-3.6,1.3s-2.9-.6-3.8-1.5c-1.3-1.3-1.9-3-1.9-4.9s.6-3.6,1.9-4.9c.9-.9,2.3-1.5,3.8-1.5Z"/>
    <path class="cls-2" d="M527.4,147.5c-2.7,0-3.9-1.9-3.9-3.9v-6.8h-3.8v-1.8h3.8v-3.1l2-.6v3.8h5.1v1.8h-5.1v6.6c0,1.3.7,2.2,2.2,2.2s2.1-.4,3.1-.8v1.8c-.9.5-1.9.9-3.4.9Z"/>
    <path class="cls-2" d="M543,147.2l-.2-1.8c-.6,1.4-2.3,2.1-3.7,2.1-2.5,0-4.3-1.8-4.3-4.5v-8h2.1v7.7c0,1.8.8,2.9,2.7,2.9s3.2-1.5,3.2-3.6v-7.1h2.1v12.2h-1.8Z"/>
    <path class="cls-2" d="M558.1,139.2c0-.7-.2-1.3-.6-1.8-.4-.5-1-.8-1.9-.8s-2.3.9-2.8,2.1c-.4.9-.5,2.2-.5,3.1v5.4h-2.1v-12.2h1.8l.2,1.8c.8-1.5,2.3-2.1,3.9-2.1s2.8.8,3.5,1.8c.6.8.8,1.8.8,2.6h-2.1Z"/>
    <path class="cls-2" d="M565.5,141.8c0,1.1.4,2.2,1.2,3,.6.6,1.4.9,2.3.9s1.6-.2,2.2-.7c.4-.3.8-.9,1-1.5h2c-.6,2.5-2.7,4-5.2,4s-2.9-.6-3.9-1.6c-1.3-1.3-1.8-3-1.8-4.8s.6-3.7,1.8-4.9c.9-.9,2.2-1.6,3.9-1.6s2.9.6,3.8,1.5c1.2,1.2,1.8,3,1.8,4.9v.7h-9.1ZM571.4,137.5c-.6-.6-1.4-1-2.3-1-2.3,0-3.4,2.2-3.5,3.6h6.9c0-1-.4-2-1-2.6Z"/>
    <path class="cls-2" d="M385.3,179.3l-6.8-13.7v13.7h-2.1v-17.1h2.7l6.8,13.8v-13.8h2.1v17.1h-2.6,0Z"/>
    <path class="cls-2" d="M393.3,173.9c0,1.1.4,2.2,1.2,3,.6.6,1.4.9,2.3.9s1.6-.2,2.2-.7c.4-.3.8-.9,1-1.5h2c-.6,2.5-2.7,4-5.2,4s-2.9-.6-3.9-1.6c-1.3-1.3-1.8-3-1.8-4.8s.6-3.7,1.8-4.9c.9-.9,2.2-1.6,3.9-1.6s2.9.6,3.8,1.5c1.2,1.2,1.8,3,1.8,4.9v.7h-9.1ZM399.2,169.6c-.6-.6-1.4-1-2.3-1-2.3,0-3.4,2.2-3.5,3.6h6.9c0-1-.4-2-1-2.6Z"/>
    <path class="cls-2" d="M413.1,179.6c-2.7,0-3.9-1.9-3.9-3.9v-6.8h-3.8v-1.8h3.8v-3.1l2-.6v3.8h5.1v1.8h-5.1v6.6c0,1.3.7,2.2,2.2,2.2s2.1-.4,3.1-.8v1.8c-.9.5-1.9.9-3.4.9Z"/>
    <path class="cls-2" d="M431,179.3h-2.4l-2.3-6.9-2.3,6.9h-2.4l-1.7-12.2h1.9l1.2,9.7,2.3-6.5h1.9l2.3,6.5,1.3-9.7h1.9l-1.7,12.2h0Z"/>
    <path class="cls-2" d="M445.2,178.2c-.9.9-2.3,1.5-3.8,1.5s-3-.6-3.9-1.5c-1.3-1.3-1.9-3-1.9-4.9s.6-3.6,1.9-4.9c.9-.9,2.3-1.5,3.9-1.5s2.9.6,3.8,1.5c1.3,1.3,1.9,3,1.9,4.9s-.6,3.7-1.9,5ZM443.6,169.5c-.5-.5-1.3-.9-2.3-.9s-1.7.4-2.3.9c-1,.9-1.4,2.4-1.4,3.7s.3,2.8,1.4,3.8c.5.5,1.3.9,2.3.9s1.7-.4,2.3-.9c1-.9,1.4-2.4,1.4-3.8s-.3-2.8-1.4-3.8Z"/>
    <path class="cls-2" d="M459.7,171.3c0-.7-.2-1.3-.6-1.8-.4-.5-1-.8-1.9-.8s-2.3.9-2.8,2.1c-.4.9-.5,2.2-.5,3.1v5.4h-2.1v-12.2h1.8l.2,1.8c.8-1.5,2.3-2.1,3.9-2.1s2.8.8,3.5,1.8c.6.8.8,1.8.8,2.6h-2.1Z"/>
    <path class="cls-2" d="M476.5,179.3h-2.4l-3.8-5.9-2.5,2.6v3.3h-2v-17.4h2v11.3l5.8-6.1h2.7l-4.7,4.8,4.8,7.3h0Z"/>
  </g>
</svg>