<?xml version="1.0" encoding="UTF-8"?>
<svg id="Logo_Symbol" data-name="Logo Symbol" xmlns="http://www.w3.org/2000/svg" version="1.1" viewBox="0 0 418.2 259.3">
  <defs>
    <style>
      .cls-1 {
        fill: #ff5833;
      }

      .cls-1, .cls-2 {
        stroke-width: 0px;
      }

      .cls-2 {
        fill: #fff;
      }
    </style>
  </defs>
  <path class="cls-2" d="M159.3,105.5v48.3c0,3.3-2.7,6-6,6h-8c-3.3,0-6,2.7-6,6v7.8c0,3.3-2.7,6-6,6h-33.9v-20h29.9c5.5,0,10-4.5,10-10v-40c0-5.5-4.5-10-10-10h-29.9v60h-19.9v-80h53.8c3.3,0,6,2.7,6,6v13.9h13.9c3.3,0,6,2.7,6,6Z"/>
  <path class="cls-2" d="M318.6,85.7v14h-33.9c-3.3,0-6,2.7-6,6v74h-19.9v-74.7c0-3.3,2.7-6,6-6h8c3.3,0,6-2.7,6-6v-7.3c0-3.3,2.7-6,6-6h27.9c3.3,0,6,2.7,6,6Z"/>
  <path class="cls-2" d="M338.5,105.7v68c0,3.3-2.7,6-6,6h-13.9v-79.9h13.9c3.3,0,6,2.7,6,6Z"/>
  <g>
    <path class="cls-1" d="M239,85.7v14h-19.9v18.1h-19.9v-18.1h-19.9v-20h53.8c3.3,0,6,2.7,6,6Z"/>
    <path class="cls-1" d="M199.1,137.7l-19.9,6v-20l19.9-6v20Z"/>
    <path class="cls-1" d="M239,143.7l-19.9-6v-20l19.9,6v20Z"/>
    <path class="cls-1" d="M239,159.7v20h-53.8c-3.3,0-6-2.7-6-6v-14h20s0,0,0,0v-21.8h19.9s0,0,0,0v21.8s0,0,0,0h20Z"/>
  </g>
</svg>